<svg width="50" height="50" viewBox="0 0 50 50" fill="none" xmlns="http://www.w3.org/2000/svg">
    <style>
        .semi-transparent { opacity: 0.25; }
    </style>
    <g class="semi-transparent">
        <path fill-rule="evenodd" clip-rule="evenodd" d="M43.4186 7.7323C41.493 6.13397 40.6136 9.17964 39.6136 9.33664C40.2113 10.4726 40.235 11.483 41.662 11.4593C41.2566 10.9343 46.103 9.9613 43.4186 7.7323Z" fill="#FE5923"/>
        <path fill-rule="evenodd" clip-rule="evenodd" d="M38.5297 12.2399C37.882 9.78894 39.999 10.0843 39.4457 9.26961C40.515 9.01961 39.0813 10.3383 40.6443 9.91261C40.4013 11.0309 41.712 11.3259 41.8407 11.4629C41.1803 11.5023 40.9407 12.5563 38.5297 12.2399Z" fill="#2456A6"/>
        <path fill-rule="evenodd" clip-rule="evenodd" d="M37.3907 3.43205C34.982 2.75139 35.282 5.78672 34.431 6.33572C35.438 7.13172 35.9977 8.05039 37.292 7.45039C36.7087 7.13472 40.748 4.38105 37.3907 3.43205Z" fill="#FE5923"/>
        <path fill-rule="evenodd" clip-rule="evenodd" d="M34.7503 9.53463C33.1323 7.43197 35.1863 6.83963 34.3403 6.28163C35.2096 5.59563 34.4566 7.46663 35.7026 6.40663C35.9493 7.58963 37.2686 7.33097 37.444 7.41063C36.8576 7.7223 37.0803 8.84163 34.7503 9.53463Z" fill="#2456A6"/>
        <path d="M39.889 19.849C39.8197 19.6913 39.636 19.6197 39.478 19.689C39.2667 19.7817 38.734 20.0773 37.9963 20.4863C36.1293 21.5203 33.0063 23.2517 31.8353 23.4947C31.3197 23.602 30.7407 23.592 30.0697 23.5807C28.977 23.563 27.671 23.543 26.224 24.075C28.0946 21.598 29.8443 19.1107 31.3493 16.7113C31.3563 16.7023 31.366 16.6957 31.3723 16.686C31.4277 16.601 31.4757 16.518 31.5227 16.4353C31.7787 16.0233 32.0263 15.6147 32.2663 15.2087C34.0393 15.3523 35.096 14.552 36.21 13.7033C37.1033 13.0233 38.0263 12.32 39.4333 12.016C39.6013 11.9793 39.7087 11.8133 39.672 11.645C39.6363 11.4763 39.4693 11.3693 39.3017 11.4057C37.7587 11.7393 36.735 12.5193 35.8323 13.207C34.8463 13.9583 33.9793 14.6157 32.621 14.6013C33.7947 12.5653 34.7543 10.6177 35.414 8.82499C35.4737 8.66332 35.3913 8.48432 35.2293 8.42466C35.067 8.36399 34.888 8.44799 34.8287 8.60966C34.1647 10.414 33.191 12.3793 31.999 14.436C31.9197 13.699 31.5793 13.045 31.2433 12.4037C30.923 11.794 30.592 11.164 30.4963 10.4593C30.473 10.2883 30.3157 10.169 30.1443 10.1923C29.9737 10.2157 29.854 10.3727 29.8777 10.5437C29.9887 11.3563 30.345 12.0363 30.6903 12.6937C31.2813 13.8197 31.79 14.7977 30.9213 16.2247C29.0833 19.1733 26.8623 22.2633 24.4976 25.3077C25.6606 22.0563 25.125 20.0723 24.562 17.9947C24.245 16.8273 23.9176 15.6193 23.8716 14.1117C23.8666 13.939 23.7227 13.8043 23.5507 13.8097C23.3783 13.815 23.2427 13.9587 23.2483 14.1303C23.2967 15.712 23.6333 16.9557 23.9596 18.158C24.6356 20.6527 25.2193 22.8103 22.9786 27.2333C20.0313 30.915 16.9483 34.468 14.1653 37.5503C9.80532 31.846 9.50798 26.1263 9.31232 22.32C9.27998 21.688 9.24932 21.091 9.20365 20.553C9.18898 20.3813 9.03832 20.2547 8.86665 20.2687C8.69498 20.283 8.56765 20.4343 8.58198 20.6057C8.62665 21.1333 8.65732 21.7247 8.68965 22.3513C8.89032 26.2563 9.19565 32.1333 13.7397 38.021C10.555 41.532 7.31665 44.907 6.07998 45.776C5.91632 45.891 6.09698 46.141 6.21998 46.2623C6.26698 46.3083 6.25332 46.5893 6.37298 46.651C6.46098 46.696 6.58098 46.6373 6.65498 46.562C8.31698 44.8667 11.082 41.8843 14.3273 38.3003L14.4257 38.1917C15.8947 36.5673 17.4513 34.8083 19.0313 32.9647C25.327 32.9327 27.7663 31.3757 31.1307 29.2257L31.6487 28.8953C31.794 28.8033 31.837 28.6103 31.744 28.4647C31.6517 28.3197 31.4593 28.2767 31.314 28.3693L30.795 28.7C27.4987 30.8063 25.279 32.2237 19.569 32.3343C20.8507 30.8273 22.142 29.2703 23.4096 27.688C23.4446 27.6607 23.4777 27.628 23.5 27.5853C23.5043 27.576 23.5077 27.5683 23.512 27.5597C24.156 26.7543 24.7927 25.943 25.4193 25.129C27.1617 24.157 28.7007 24.1817 30.0587 24.204C30.737 24.2153 31.3777 24.226 31.9617 24.105C33.225 23.843 36.278 22.1507 38.2973 21.0313C38.9937 20.6457 39.543 20.341 39.7283 20.2593C39.8863 20.1903 39.958 20.0067 39.889 19.849Z" fill="#2456A6"/>
        <path fill-rule="evenodd" clip-rule="evenodd" d="M38.6346 19.4981C39.1753 18.4644 39.8286 18.6061 41.2593 18.2407C42.2816 19.5627 41.871 20.7254 40.1666 21.0897C39.6893 20.7191 39.0043 20.6787 38.6346 19.4981Z" fill="#2456A6"/>
        <path fill-rule="evenodd" clip-rule="evenodd" d="M44.6434 20.2173C45.1467 20.2503 46.1547 20.0269 45.9487 18.1249C45.7597 16.3823 44.1437 17.5139 43.3564 17.7603C43.3107 17.7873 43.268 17.8186 43.2254 17.8509C42.918 16.6806 44.4964 13.3159 41.7667 14.2356C40.789 14.5649 40.761 15.9239 40.8144 16.7736C40.1847 16.4286 39.1834 15.0166 38.177 16.3223C37.2134 17.5729 39.5277 19.4363 40.327 19.6563C40.822 19.6766 41.216 19.4526 41.543 19.2696C41.4394 19.5883 41.1807 19.8919 40.3977 20.0216C40.7854 21.6769 38.9247 22.4806 40.886 23.3673C41.8257 23.7919 42.3257 22.4856 42.579 21.9033C43.2527 22.6596 43.2874 24.0669 44.9664 23.0663C46.1347 22.3703 45.175 20.8436 44.6434 20.2173Z" fill="#FFBBB8"/>
        <path fill-rule="evenodd" clip-rule="evenodd" d="M41.912 18.382C41.4943 19.8094 42.1417 20.2084 42.7197 20.611C43.197 20.9354 43.4493 19.4497 43.2033 18.929C43.001 18.5064 42.1193 17.6567 41.912 18.382Z" fill="#FE5923"/>
        <path fill-rule="evenodd" clip-rule="evenodd" d="M8.96697 21.3814C9.89397 20.6394 9.61897 20.018 9.69497 18.5097C8.17497 17.7584 7.09164 18.4007 7.07764 20.1747C7.53797 20.5724 7.7153 21.2484 8.96697 21.3814Z" fill="#2456A6"/>
        <path fill-rule="evenodd" clip-rule="evenodd" d="M11.86 18.671C12.498 18.4844 13.1177 18.1157 13.5053 17.47C13.553 17.391 13.5663 17.2957 13.5427 17.2064C12.8387 14.5524 10.3553 16.4684 10.0037 16.1647C9.53832 15.7627 10.1787 14.0174 8.73898 14.055C7.10498 14.0974 7.41698 15.1677 6.99532 15.4244C6.38965 15.793 5.03165 15.2274 4.17498 15.8177C4.05898 15.8977 3.99698 16.0414 4.03532 16.177C4.38832 17.429 5.66532 17.7074 5.65965 18.1324C5.65365 18.5727 4.99232 18.839 4.86632 19.8427C4.84332 20.0267 5.16832 20.336 5.35198 20.3647C8.24998 20.8154 8.48265 19.346 8.65532 19.3424C8.91632 19.3367 9.84398 21.089 11.3013 21.1517C11.619 21.1654 12.018 20.8097 12.0257 20.6027C12.0533 19.8557 11.8163 19.465 11.6547 19.147C11.5583 18.9587 11.657 18.7307 11.86 18.671Z" fill="#FFBBB8"/>
        <path fill-rule="evenodd" clip-rule="evenodd" d="M9.42736 17.891C8.08736 18.5907 7.55669 18.0264 7.04202 17.5307C6.61736 17.1207 8.05169 16.563 8.62569 16.715C9.08569 16.8287 10.1144 17.535 9.42736 17.891Z" fill="#FE5923"/>
        <path fill-rule="evenodd" clip-rule="evenodd" d="M23.4373 14.628C22.675 14.1027 22.8263 13.079 22.2277 12.5287C23.133 12.036 23.7427 11.7597 24.688 12.4147C24.1883 12.5807 24.8473 14.206 23.4373 14.628Z" fill="#2456A6"/>
        <path fill-rule="evenodd" clip-rule="evenodd" d="M26.0367 8.86402C25.57 8.67602 25.1257 8.97102 24.7903 9.16802C24.6887 8.59169 24.5287 7.73936 23.9673 7.71869C22.7737 7.67502 22.7247 8.87402 22.752 9.43802C22.5123 9.27769 22.2253 9.07902 21.9573 9.18502C20.131 9.90602 21.2053 11.7267 21.76 12.315C22.439 13.0347 23.268 12.48 23.461 12.7334C23.3403 12.5727 23.4703 12.3954 23.6353 12.1764C23.8583 12.4024 24.0127 12.4347 23.9883 12.638C24.0337 12.235 24.6733 12.7384 25.34 12.0237C25.64 11.5574 27.103 9.29469 26.0367 8.86402Z" fill="#FFBBB8"/>
        <path fill-rule="evenodd" clip-rule="evenodd" d="M30.416 10.6423C31.06 9.96396 30.78 9.50263 30.6796 8.31596C29.41 7.89063 28.6373 8.50729 28.8083 9.89529C29.2096 10.1586 29.4246 10.668 30.416 10.6423Z" fill="#2456A6"/>
        <path fill-rule="evenodd" clip-rule="evenodd" d="M30.5574 6.81905C30.558 6.81405 30.5604 6.80872 30.5617 6.80405C30.5377 6.13905 30.9704 4.62539 29.6047 4.93505C27.916 5.31805 28.1907 6.11272 28.381 6.53472C27.77 6.23039 26.1797 5.75572 25.933 6.94405C25.6087 8.50205 26.6974 8.14005 27.474 8.47072C27.0927 8.81605 26.2194 9.54039 26.7924 10.1484C27.9767 11.4051 29.3837 9.48405 29.431 9.40205C29.493 9.29439 29.5947 9.24439 29.6387 9.36039L29.641 9.36705C30.0184 9.91439 32.0037 11.2081 32.7074 10.1451C33.3247 9.21339 32.2217 8.72539 31.8977 8.41705C32.608 8.26405 33.738 7.90739 33.732 6.99772C33.7157 4.62172 31.5384 6.86205 30.5574 6.81905Z" fill="#FFBBB8"/>
        <path fill-rule="evenodd" clip-rule="evenodd" d="M30.4023 7.86503C29.4343 8.5557 28.9593 8.16837 28.507 7.83003C28.13 7.55537 29.1897 6.97337 29.6537 7.0197C30.0257 7.0717 30.9003 7.51037 30.4023 7.86503Z" fill="#FE5923"/>
        <path fill-rule="evenodd" clip-rule="evenodd" d="M24.585 30.9003C23.8556 29.8223 23.0536 29.5933 22.2973 29.6393C21.9043 29.6637 21.5836 29.3277 21.618 28.9353C21.6953 28.0587 21.5906 27.027 21.0016 26.397C20.8536 26.2387 20.6353 26.1637 20.4216 26.1997C18.6106 26.5053 18.277 27.648 18.0923 28.6457C18.026 29.004 17.6746 29.2383 17.319 29.159C16.4403 28.961 15.3556 28.9237 14.636 29.4503C14.4623 29.5777 14.3633 29.785 14.3733 29.9993C14.438 31.3603 15.0536 31.9677 15.7623 32.314C16.1286 32.493 16.2403 32.9623 15.9933 33.2867C15.549 33.871 15.2123 34.5713 15.28 35.26C15.301 35.4703 15.428 35.6557 15.613 35.7563C16.9946 36.5093 17.901 36.1063 18.6103 35.551C18.8896 35.3327 19.2916 35.379 19.5143 35.6553C20.1203 36.407 21.1173 37.272 22.148 37.2413C22.3593 37.2347 22.5526 37.1177 22.6653 36.9383C23.4943 35.6147 23.1606 34.689 22.6596 33.9507C22.428 33.6097 22.5666 33.1477 22.9446 32.9853C23.6693 32.6743 24.376 32.186 24.6543 31.4913C24.7333 31.2963 24.7023 31.0747 24.585 30.9003Z" fill="#FFBBB8"/>
        <path fill-rule="evenodd" clip-rule="evenodd" d="M20.6927 31.9013C20.115 34.047 19.0527 32.6037 18.7473 32.027C18.4547 31.4677 19.2813 30.4977 19.906 30.536C20.431 30.58 20.8253 31.3917 20.6927 31.9013Z" fill="#FE5923"/>
        <path fill-rule="evenodd" clip-rule="evenodd" d="M36.4207 27.011C36.7893 26.51 37.074 25.915 37.043 25.3307C37.0293 25.0827 36.875 24.865 36.6523 24.7567C35.7147 24.3024 35.0373 24.428 34.4983 24.7407C34.1507 24.9427 33.704 24.8007 33.5323 24.437C33.2237 23.7854 32.744 23.1224 32.097 22.8717C31.871 22.784 31.6123 22.8277 31.4247 22.9824C30.2653 23.938 30.427 24.9044 30.692 25.723C30.809 26.0847 30.608 26.475 30.2447 26.589C29.5477 26.8077 28.7983 27.2024 28.45 27.822C28.323 28.049 28.3313 28.3274 28.4723 28.5457C29.0587 29.453 29.7307 29.6784 30.377 29.6717C30.795 29.6677 31.1273 30.0247 31.078 30.4394C31.0093 31.0144 31.0533 31.6124 31.3327 32.0757C31.4567 32.2814 31.6863 32.4027 31.9253 32.3967C33.21 32.3657 33.7387 31.732 34.051 31.0437C34.2027 30.7104 34.59 30.5587 34.932 30.6907C35.6807 30.9794 36.6993 31.1797 37.4463 30.8087C37.6747 30.6954 37.8217 30.4657 37.8307 30.211C37.876 28.9564 37.298 28.39 36.6467 28.0357C36.274 27.833 36.1687 27.353 36.4207 27.011Z" fill="#FFBBB8"/>
        <path fill-rule="evenodd" clip-rule="evenodd" d="M34.133 27.2353C34.6064 29.1487 33.1677 28.4857 32.6817 28.1673C32.2167 27.8603 32.4434 26.7503 32.947 26.5167C33.3684 26.3217 34.0274 26.7843 34.133 27.2353Z" fill="#FE5923"/>
    </g>
</svg>
