<svg width="100" height="100" viewBox="0 0 100 100" fill="none" xmlns="http://www.w3.org/2000/svg">
    <style>
        .semi-transparent { opacity: 0.6; }
    </style>
    <g class="semi-transparent">
        <path fill-rule="evenodd" clip-rule="evenodd" d="M86.8374 15.4646C82.986 12.2679 81.2274 18.3593 79.2274 18.6733C80.4227 20.9453 80.47 22.9659 83.324 22.9186C82.5134 21.8686 92.206 19.9226 86.8374 15.4646Z" fill="#FE5923"/>
        <path fill-rule="evenodd" clip-rule="evenodd" d="M77.0593 24.48C75.764 19.578 79.998 20.1687 78.8913 18.5393C81.03 18.0393 78.1627 20.6767 81.2887 19.8253C80.8027 22.062 83.424 22.652 83.6813 22.926C82.3607 23.0047 81.8813 25.1127 77.0593 24.48Z" fill="#2456A6"/>
        <path fill-rule="evenodd" clip-rule="evenodd" d="M74.7813 6.86398C69.964 5.50265 70.564 11.5733 68.862 12.6713C70.876 14.2633 71.9953 16.1006 74.584 14.9006C73.4173 14.2693 81.496 8.76198 74.7813 6.86398Z" fill="#FE5923"/>
        <path fill-rule="evenodd" clip-rule="evenodd" d="M69.5007 19.0694C66.2647 14.8641 70.3727 13.6794 68.6807 12.5634C70.4194 11.1914 68.9134 14.9334 71.4054 12.8134C71.8987 15.1794 74.5374 14.6621 74.888 14.8214C73.7154 15.4447 74.1607 17.6834 69.5007 19.0694Z" fill="#2456A6"/>
        <path d="M79.778 39.698C79.6394 39.3826 79.272 39.2393 78.956 39.378C78.5334 39.5633 77.468 40.1546 75.9927 40.9726C72.2587 43.0406 66.0127 46.5033 63.6707 46.9893C62.6394 47.204 61.4814 47.184 60.1394 47.1613C57.954 47.126 55.342 47.086 52.448 48.15C56.1894 43.196 59.6887 38.2213 62.6987 33.4226C62.7127 33.4046 62.732 33.3913 62.7447 33.372C62.8554 33.202 62.9514 33.036 63.0454 32.8706C63.5574 32.0466 64.0527 31.2293 64.5327 30.4173C68.0787 30.7046 70.192 29.104 72.42 27.4066C74.2067 26.0466 76.0527 24.64 78.8667 24.032C79.2027 23.9586 79.4174 23.6266 79.344 23.29C79.2727 22.9526 78.9387 22.7386 78.6034 22.8113C75.5174 23.4786 73.47 25.0386 71.6647 26.414C69.6927 27.9166 67.9587 29.2313 65.242 29.2026C67.5894 25.1306 69.5087 21.2353 70.828 17.65C70.9474 17.3266 70.7827 16.9686 70.4587 16.8493C70.134 16.728 69.776 16.896 69.6574 17.2193C68.3294 20.828 66.382 24.7586 63.998 28.872C63.8394 27.398 63.1587 26.09 62.4867 24.8073C61.846 23.588 61.184 22.328 60.9927 20.9186C60.946 20.5766 60.6314 20.338 60.2887 20.3846C59.9474 20.4313 59.708 20.7453 59.7554 21.0873C59.9774 22.7126 60.69 24.0726 61.3807 25.3873C62.5627 27.6393 63.58 29.5953 61.8427 32.4493C58.1667 38.3466 53.7247 44.5266 48.9954 50.6153C51.3214 44.1126 50.25 40.1446 49.124 35.9893C48.49 33.6546 47.8354 31.2386 47.7434 28.2233C47.7334 27.878 47.4454 27.6086 47.1014 27.6193C46.7567 27.63 46.4854 27.9173 46.4967 28.2606C46.5934 31.424 47.2667 33.9113 47.9194 36.316C49.2714 41.3053 50.4387 45.6206 45.9574 54.4666C40.0627 61.83 33.8967 68.936 28.3307 75.1006C19.6107 63.692 19.016 52.2526 18.6247 44.64C18.56 43.376 18.4987 42.182 18.4074 41.106C18.378 40.7626 18.0767 40.5093 17.7334 40.5373C17.39 40.566 17.1354 40.8686 17.164 41.2113C17.2534 42.2666 17.3147 43.4493 17.3794 44.7026C17.7807 52.5126 18.3914 64.2667 27.4794 76.042C21.11 83.064 14.6334 89.814 12.16 91.552C11.8327 91.782 12.194 92.282 12.44 92.5247C12.534 92.6167 12.5067 93.1787 12.746 93.302C12.922 93.392 13.162 93.2747 13.31 93.124C16.634 89.7333 22.164 83.7686 28.6547 76.6006L28.8514 76.3833C31.7894 73.1346 34.9027 69.6166 38.0627 65.9293C50.654 65.8653 55.5327 62.7513 62.2614 58.4513L63.2974 57.7906C63.588 57.6066 63.674 57.2206 63.488 56.9293C63.3034 56.6393 62.9187 56.5533 62.628 56.7386L61.59 57.4C54.9974 61.6126 50.558 64.4473 39.138 64.6686C41.7014 61.6546 44.284 58.5406 46.8194 55.376C46.8894 55.3213 46.9554 55.256 47 55.1706C47.0087 55.152 47.0154 55.1366 47.024 55.1193C48.312 53.5086 49.5854 51.886 50.8387 50.258C54.3234 48.314 57.4014 48.3633 60.1174 48.408C61.474 48.4306 62.7554 48.452 63.9234 48.21C66.45 47.686 72.556 44.3013 76.5947 42.0626C77.9874 41.2913 79.086 40.682 79.4567 40.5186C79.7727 40.3806 79.916 40.0133 79.778 39.698Z" fill="#2456A6"/>
        <path fill-rule="evenodd" clip-rule="evenodd" d="M77.2693 38.996C78.3507 36.9287 79.6573 37.212 82.5187 36.4813C84.5633 39.1253 83.742 41.4507 80.3333 42.1793C79.3787 41.438 78.0087 41.3573 77.2693 38.996Z" fill="#2456A6"/>
        <path fill-rule="evenodd" clip-rule="evenodd" d="M89.2867 40.4347C90.2933 40.5007 92.3093 40.054 91.8973 36.25C91.5193 32.7647 88.2873 35.028 86.7127 35.5207C86.6213 35.5747 86.536 35.6373 86.4507 35.702C85.836 33.3613 88.9927 26.632 83.5333 28.4713C81.578 29.13 81.522 31.848 81.6287 33.5473C80.3693 32.8573 78.3667 30.0333 76.354 32.6447C74.4267 35.146 79.0553 38.8727 80.654 39.3127C81.644 39.3533 82.432 38.9053 83.086 38.5393C82.8787 39.1767 82.3613 39.784 80.7953 40.0433C81.5707 43.354 77.8493 44.9613 81.772 46.7347C83.6513 47.584 84.6513 44.9713 85.158 43.8067C86.5053 45.3193 86.5747 48.134 89.9327 46.1327C92.2693 44.7407 90.35 41.6873 89.2867 40.4347Z" fill="#FFBBB8"/>
        <path fill-rule="evenodd" clip-rule="evenodd" d="M83.824 36.7639C82.9886 39.6186 84.2833 40.4166 85.4393 41.2219C86.394 41.8706 86.8986 38.8993 86.4066 37.8579C86.002 37.0126 84.2386 35.3133 83.824 36.7639Z" fill="#FE5923"/>
        <path fill-rule="evenodd" clip-rule="evenodd" d="M17.934 42.7627C19.788 41.2787 19.238 40.036 19.39 37.0194C16.35 35.5167 14.1833 36.8014 14.1553 40.3494C15.076 41.1447 15.4307 42.4967 17.934 42.7627Z" fill="#2456A6"/>
        <path fill-rule="evenodd" clip-rule="evenodd" d="M23.72 37.342C24.996 36.9686 26.2354 36.2313 27.0107 34.94C27.106 34.782 27.1327 34.5913 27.0854 34.4126C25.6774 29.1046 20.7107 32.9366 20.0074 32.3293C19.0767 31.5253 20.3574 28.0346 17.478 28.11C14.21 28.1946 14.834 30.3353 13.9907 30.8486C12.7794 31.586 10.0634 30.4546 8.35003 31.6353C8.11803 31.7953 7.99403 32.0826 8.0707 32.354C8.7767 34.858 11.3307 35.4146 11.3194 36.2646C11.3074 37.1453 9.9847 37.678 9.7327 39.6853C9.6867 40.0533 10.3367 40.672 10.704 40.7293C16.5 41.6306 16.9654 38.692 17.3107 38.6846C17.8327 38.6733 19.688 42.178 22.6027 42.3033C23.238 42.3306 24.036 41.6193 24.0514 41.2053C24.1067 39.7113 23.6327 38.93 23.3094 38.294C23.1167 37.9173 23.314 37.4613 23.72 37.342Z" fill="#FFBBB8"/>
        <path fill-rule="evenodd" clip-rule="evenodd" d="M18.8547 35.782C16.1747 37.1813 15.1133 36.0526 14.084 35.0613C13.2347 34.2413 16.1033 33.126 17.2513 33.43C18.1713 33.6573 20.2287 35.07 18.8547 35.782Z" fill="#FE5923"/>
        <path fill-rule="evenodd" clip-rule="evenodd" d="M46.8747 29.256C45.35 28.2053 45.6527 26.158 44.4553 25.0573C46.266 24.072 47.4853 23.5193 49.376 24.8293C48.3767 25.1613 49.6947 28.412 46.8747 29.256Z" fill="#2456A6"/>
        <path fill-rule="evenodd" clip-rule="evenodd" d="M52.0733 17.728C51.14 17.352 50.2513 17.942 49.5806 18.336C49.3773 17.1834 49.0573 15.4787 47.9346 15.4374C45.5473 15.35 45.4493 17.748 45.504 18.876C45.0246 18.5554 44.4506 18.158 43.9146 18.37C40.262 19.812 42.4106 23.4534 43.52 24.63C44.878 26.0694 46.536 24.96 46.922 25.4667C46.6806 25.1454 46.9406 24.7907 47.2706 24.3527C47.7166 24.8047 48.0253 24.8694 47.9766 25.276C48.0673 24.47 49.3466 25.4767 50.68 24.0474C51.28 23.1147 54.206 18.5894 52.0733 17.728Z" fill="#FFBBB8"/>
        <path fill-rule="evenodd" clip-rule="evenodd" d="M60.832 21.2847C62.12 19.928 61.56 19.0054 61.3594 16.632C58.82 15.7814 57.2747 17.0147 57.6167 19.7907C58.4194 20.3174 58.8494 21.336 60.832 21.2847Z" fill="#2456A6"/>
        <path fill-rule="evenodd" clip-rule="evenodd" d="M61.1147 13.638C61.116 13.628 61.1207 13.6173 61.1233 13.608C61.0753 12.278 61.9407 9.25065 59.2093 9.86999C55.832 10.636 56.3813 12.2253 56.762 13.0693C55.54 12.4607 52.3593 11.5113 51.866 13.888C51.2173 17.004 53.3947 16.28 54.948 16.9413C54.1853 17.632 52.4387 19.0807 53.5847 20.2967C55.9533 22.81 58.7673 18.968 58.862 18.804C58.986 18.5887 59.1893 18.4887 59.2773 18.7207L59.282 18.734C60.0367 19.8287 64.0073 22.416 65.4147 20.29C66.6493 18.4267 64.4433 17.4507 63.7953 16.834C65.216 16.528 67.476 15.8147 67.464 13.9953C67.4313 9.24332 63.0767 13.724 61.1147 13.638Z" fill="#FFBBB8"/>
        <path fill-rule="evenodd" clip-rule="evenodd" d="M60.8047 15.7299C58.8687 17.1113 57.9187 16.3366 57.014 15.6599C56.26 15.1106 58.3793 13.9466 59.3073 14.0393C60.0513 14.1433 61.8007 15.0206 60.8047 15.7299Z" fill="#FE5923"/>
        <path fill-rule="evenodd" clip-rule="evenodd" d="M49.17 61.8007C47.7113 59.6447 46.1074 59.1867 44.5947 59.2787C43.8087 59.3273 43.1673 58.6553 43.236 57.8707C43.3907 56.1173 43.1814 54.054 42.0034 52.794C41.7074 52.4774 41.2707 52.3273 40.8434 52.3993C37.2214 53.0107 36.554 55.296 36.1847 57.2913C36.052 58.008 35.3494 58.4767 34.638 58.318C32.8807 57.922 30.7114 57.8473 29.272 58.9007C28.9247 59.1553 28.7267 59.57 28.7467 59.9987C28.876 62.7207 30.1073 63.9354 31.5247 64.628C32.2573 64.986 32.4807 65.9247 31.9867 66.5734C31.098 67.742 30.4247 69.1427 30.56 70.52C30.602 70.9407 30.856 71.3113 31.226 71.5127C33.9894 73.0187 35.802 72.2127 37.2207 71.102C37.7794 70.6654 38.5834 70.758 39.0287 71.3107C40.2407 72.814 42.2347 74.544 44.296 74.4827C44.7187 74.4693 45.1054 74.2354 45.3307 73.8767C46.9887 71.2294 46.3213 69.378 45.3193 67.9013C44.856 67.2193 45.1334 66.2954 45.8894 65.9707C47.3387 65.3487 48.752 64.372 49.3087 62.9827C49.4667 62.5927 49.4047 62.1493 49.17 61.8007Z" fill="#FFBBB8"/>
        <path fill-rule="evenodd" clip-rule="evenodd" d="M41.3853 63.8027C40.23 68.094 38.1053 65.2074 37.4947 64.054C36.9093 62.9354 38.5627 60.9954 39.812 61.072C40.862 61.16 41.6507 62.7834 41.3853 63.8027Z" fill="#FE5923"/>
        <path fill-rule="evenodd" clip-rule="evenodd" d="M72.8414 54.0219C73.5787 53.0199 74.148 51.8299 74.086 50.6613C74.0587 50.1653 73.75 49.7299 73.3047 49.5133C71.4294 48.6046 70.0747 48.856 68.9967 49.4813C68.3014 49.8853 67.408 49.6013 67.0647 48.8739C66.4474 47.5706 65.488 46.2446 64.194 45.7433C63.742 45.5679 63.2247 45.6553 62.8494 45.9646C60.5307 47.8759 60.854 49.8086 61.384 51.4459C61.618 52.1693 61.216 52.9499 60.4894 53.1779C59.0954 53.6153 57.5967 54.4046 56.9 55.644C56.646 56.098 56.6627 56.6546 56.9447 57.0913C58.1174 58.906 59.4614 59.3566 60.754 59.3433C61.59 59.3353 62.2547 60.0493 62.156 60.8786C62.0187 62.0286 62.1067 63.2246 62.6654 64.1513C62.9134 64.5626 63.3727 64.8053 63.8507 64.7933C66.42 64.7313 67.4774 63.4639 68.102 62.0873C68.4054 61.4206 69.18 61.1173 69.864 61.3813C71.3614 61.9586 73.3987 62.3593 74.8927 61.6173C75.3494 61.3906 75.6434 60.9313 75.6614 60.422C75.752 57.9126 74.596 56.78 73.2934 56.0713C72.548 55.666 72.3374 54.7059 72.8414 54.0219Z" fill="#FFBBB8"/>
        <path fill-rule="evenodd" clip-rule="evenodd" d="M68.266 54.4707C69.2127 58.2973 66.3353 56.9713 65.3633 56.3347C64.4333 55.7207 64.8867 53.5007 65.894 53.0333C66.7367 52.6433 68.0547 53.5687 68.266 54.4707Z" fill="#FE5923"/>
    </g>
</svg>
