<svg width="452" height="453" viewBox="0 0 452 453" fill="none" xmlns="http://www.w3.org/2000/svg" stroke="black" stroke-width="2">
    <path d="M26.4424 26.2057C39.7757 -7.12766 53.109 -7.12766 66.4424 26.2057C79.7757 59.539 93.109 59.539 106.442 26.2057C119.776 -7.12766 133.109 -7.12766 146.442 26.2057C159.776 59.539 173.109 59.539 186.442 26.2057C199.776 -7.12766 213.109 -7.12766 226.442 26.2057C239.776 59.539 253.109 59.539 266.442 26.2057C279.776 -7.12766 293.109 -7.12766 306.442 26.2057C319.776 59.539 333.109 59.539 346.442 26.2057C359.776 -7.12766 373.109 -7.12766 386.442 26.2057C399.776 59.539 413.109 59.539 426.442 26.2057"/>
    <path d="M425.898 26.1103C459.232 39.4436 459.232 52.777 425.898 66.1103C392.565 79.4436 392.565 92.777 425.898 106.11C459.232 119.444 459.232 132.777 425.898 146.11C392.565 159.444 392.565 172.777 425.898 186.11C459.232 199.444 459.232 212.777 425.898 226.11C392.565 239.444 392.565 252.777 425.898 266.11C459.232 279.444 459.232 292.777 425.898 306.11C392.565 319.444 392.565 332.777 425.898 346.11C459.232 359.444 459.232 372.777 425.898 386.11C392.565 399.444 392.565 412.777 425.898 426.11"/>
    <path d="M26.2607 426.181C39.5941 392.848 52.9274 392.848 66.2607 426.181C79.5941 459.515 92.9274 459.515 106.261 426.181C119.594 392.848 132.927 392.848 146.261 426.181C159.594 459.515 172.927 459.515 186.261 426.181C199.594 392.848 212.927 392.848 226.261 426.181C239.594 459.515 252.927 459.515 266.261 426.181C279.594 392.848 292.927 392.848 306.261 426.181C319.594 459.515 332.927 459.515 346.261 426.181C359.594 392.848 372.927 392.848 386.261 426.181C399.594 459.515 412.927 459.515 426.261 426.181" />
    <path d="M26 426C-7.33333 412.667 -7.33333 399.333 26 386C59.3333 372.667 59.3333 359.333 26 346C-7.33333 332.667 -7.33333 319.333 26 306C59.3333 292.667 59.3333 279.333 26 266C-7.33333 252.667 -7.33333 239.333 26 226C59.3333 212.667 59.3333 199.333 26 186C-7.33333 172.667 -7.33333 159.333 26 146C59.3333 132.667 59.3333 119.333 26 106C-7.33333 92.6667 -7.33333 79.3333 26 66C59.3333 52.6667 59.3333 39.3333 26 26"/>
</svg>
