<svg width="75" height="32" xmlns="http://www.w3.org/2000/svg"><path d="M2 2c4.60081 0 8.311447 2.168652 13.226327 8.094727.764529.938016 1.19994 1.473434 1.306232 1.606254L19.839111 16C27.232016 25.284112 30.300121 28 37.5 28c4.815693 0 8.840966-2.079488 16.045423-11.262247l2.127321-2.72115c2.90467-3.687661 4.544664-5.6921 6.521223-7.51339l.186404-.170693c3.115569-2.835518 7.099341-4.22449 10.278346-4.327024L75 2v3h-1.596924c-2.707545 0-6.744042 2.079488-13.9485 11.262247l-2.12732 2.72115c-2.90467 3.687661-3.779283 5.021445-5.755842 6.842735l-.186404.170694C48.15817 28.933613 46.41748 31 40.41748 31c-9.182128 0-12.459594-2.7406-19.056274-10.765259l-4.828647-6.218139c-.576839-.72382-1.057495-1.317208-1.527904-1.884399C10.544425 6.75432 5.714106 5.106008 2 5H0V2h2z" fill="#000" fill-rule="nonzero"/></svg>
